<svg width="44" height="44" viewBox="0 0 44 44" fill="none" xmlns="http://www.w3.org/2000/svg">
<g clip-path="url(#clip0_368_14367)">
<path d="M16.4995 9.1665H12.8328C11.8603 9.1665 10.9277 9.55281 10.2401 10.2404C9.55245 10.9281 9.16614 11.8607 9.16614 12.8332V34.8332C9.16614 35.8056 9.55245 36.7383 10.2401 37.4259C10.9277 38.1135 11.8603 38.4998 12.8328 38.4998H31.1661C32.1386 38.4998 33.0712 38.1135 33.7589 37.4259C34.4465 36.7383 34.8328 35.8056 34.8328 34.8332V12.8332C34.8328 11.8607 34.4465 10.9281 33.7589 10.2404C33.0712 9.55281 32.1386 9.1665 31.1661 9.1665H27.4995" stroke="white" stroke-width="1.5" stroke-linecap="round" stroke-linejoin="round"/>
<path d="M16.5 9.16667C16.5 8.19421 16.8863 7.26157 17.5739 6.57394C18.2616 5.88631 19.1942 5.5 20.1667 5.5H23.8333C24.8058 5.5 25.7384 5.88631 26.4261 6.57394C27.1137 7.26157 27.5 8.19421 27.5 9.16667C27.5 10.1391 27.1137 11.0718 26.4261 11.7594C25.7384 12.447 24.8058 12.8333 23.8333 12.8333H20.1667C19.1942 12.8333 18.2616 12.447 17.5739 11.7594C16.8863 11.0718 16.5 10.1391 16.5 9.16667Z" stroke="white" stroke-width="1.5" stroke-linecap="round" stroke-linejoin="round"/>
<path d="M16.5 22H27.5" stroke="white" stroke-width="1.5" stroke-linecap="round" stroke-linejoin="round"/>
<path d="M16.5 29.3333H27.5" stroke="white" stroke-width="1.5" stroke-linecap="round" stroke-linejoin="round"/>
</g>
<defs>
<clipPath id="clip0_368_14367">
<rect width="44" height="44" fill="white"/>
</clipPath>
</defs>
</svg>
