<svg width="22" height="22" viewBox="0 0 22 22" fill="none" xmlns="http://www.w3.org/2000/svg">
<g clip-path="url(#clip0_527_8158)">
<path d="M4.58301 11.9167C4.58301 12.7593 4.74898 13.5937 5.07145 14.3722C5.39391 15.1507 5.86656 15.8581 6.46241 16.4539C7.05825 17.0498 7.76562 17.5224 8.54412 17.8449C9.32263 18.1674 10.157 18.3333 10.9997 18.3333C11.8423 18.3333 12.6767 18.1674 13.4552 17.8449C14.2337 17.5224 14.9411 17.0498 15.5369 16.4539C16.1328 15.8581 16.6054 15.1507 16.9279 14.3722C17.2504 13.5937 17.4163 12.7593 17.4163 11.9167C17.4163 10.2149 16.7403 8.58276 15.5369 7.3794C14.3336 6.17604 12.7015 5.5 10.9997 5.5C9.29787 5.5 7.66576 6.17604 6.46241 7.3794C5.25905 8.58276 4.58301 10.2149 4.58301 11.9167Z" stroke="#1D70B7" stroke-width="2" stroke-linecap="round" stroke-linejoin="round"/>
<path d="M13.2917 9.625L11 11.9167" stroke="#1D70B7" stroke-width="2" stroke-linecap="round" stroke-linejoin="round"/>
<path d="M15.583 7.33341L16.4997 6.41675" stroke="#1D70B7" stroke-width="2" stroke-linecap="round" stroke-linejoin="round"/>
<path d="M12.8337 2.75H9.16699" stroke="#1D70B7" stroke-width="2" stroke-linecap="round" stroke-linejoin="round"/>
</g>
<defs>
<clipPath id="clip0_527_8158">
<rect width="22" height="22" fill="white"/>
</clipPath>
</defs>
</svg>
