<svg width="35" height="35" viewBox="0 0 35 35" fill="none" xmlns="http://www.w3.org/2000/svg">
<g clip-path="url(#clip0_596_4128)">
<path d="M15.203 2.06198C15.875 1.69138 16.6253 1.48533 17.3924 1.46075C18.1595 1.43616 18.9215 1.59372 19.6159 1.92052L19.893 2.06198L29.7732 7.88802L29.9132 7.9799L30.0473 8.09219L30.2034 8.20156C30.7102 8.58161 31.135 9.06016 31.4523 9.60849C31.7695 10.1568 31.9727 10.7636 32.0496 11.3924L32.0759 11.687L32.0832 11.9845V22.607C32.0832 24.2199 31.2519 25.7118 29.9628 26.5343L29.7148 26.6801L19.7938 32.9539C18.455 33.6889 16.8494 33.7341 15.413 33.053L15.1271 32.9072L5.36359 26.7282C4.66866 26.3483 4.08094 25.799 3.65494 25.1313C3.22894 24.4636 2.97845 23.6992 2.92671 22.9089L2.9165 22.607V11.983C2.9165 10.3701 3.74775 8.87969 5.069 8.03823L15.203 2.06198ZM17.4998 16.0416H16.0415L15.8709 16.0518C15.5164 16.0939 15.1898 16.2646 14.9527 16.5315C14.7157 16.7984 14.5848 17.143 14.5848 17.4999C14.5848 17.8568 14.7157 18.2014 14.9527 18.4683C15.1898 18.7352 15.5164 18.9059 15.8709 18.948L16.0415 18.9582V23.3332L16.0517 23.5039C16.0901 23.8294 16.237 24.1325 16.4688 24.3643C16.7006 24.596 17.0037 24.743 17.3292 24.7814L17.4998 24.7916H18.9582L19.1288 24.7814C19.4543 24.743 19.7574 24.596 19.9892 24.3643C20.221 24.1325 20.3679 23.8294 20.4063 23.5039L20.4165 23.3332L20.4063 23.1626C20.3714 22.8651 20.2458 22.5855 20.0464 22.3619C19.8471 22.1383 19.5837 21.9815 19.2921 21.9128L19.1288 21.8836L18.9582 21.8749V17.4999L18.948 17.3293C18.9096 17.0037 18.7626 16.7006 18.5309 16.4689C18.2991 16.2371 17.996 16.0902 17.6705 16.0518L17.4998 16.0416ZM17.5144 11.6666L17.3292 11.6768C16.9748 11.7189 16.6481 11.8896 16.4111 12.1565C16.174 12.4234 16.0431 12.768 16.0431 13.1249C16.0431 13.4818 16.174 13.8264 16.4111 14.0933C16.6481 14.3602 16.9748 14.5309 17.3292 14.573L17.4998 14.5832L17.685 14.573C18.0395 14.5309 18.3662 14.3602 18.6032 14.0933C18.8402 13.8264 18.9711 13.4818 18.9711 13.1249C18.9711 12.768 18.8402 12.4234 18.6032 12.1565C18.3662 11.8896 18.0395 11.7189 17.685 11.6768L17.5144 11.6666Z" fill="#232121"/>
</g>
<defs>
<clipPath id="clip0_596_4128">
<rect width="35" height="35" fill="white"/>
</clipPath>
</defs>
</svg>
