<svg width="31" height="31" viewBox="0 0 31 31" fill="none" xmlns="http://www.w3.org/2000/svg">
<g clip-path="url(#clip0_596_4131)">
<path d="M25.8334 23.25C26.1626 23.2504 26.4792 23.3764 26.7186 23.6024C26.958 23.8284 27.1021 24.1373 27.1214 24.466C27.1407 24.7946 27.0337 25.1182 26.8224 25.3707C26.6111 25.6232 26.3114 25.7854 25.9845 25.8243L25.8334 25.8333H5.1667C4.83748 25.833 4.52083 25.7069 4.28143 25.4809C4.04204 25.2549 3.89798 24.946 3.87869 24.6174C3.85939 24.2887 3.96632 23.9651 4.17763 23.7126C4.38893 23.4602 4.68866 23.2979 5.01558 23.259L5.1667 23.25H25.8334Z" fill="#232121"/>
<path d="M19.6592 6.94267C19.8711 6.67817 20.1786 6.50758 20.5152 6.46771C20.8518 6.42784 21.1906 6.52188 21.4585 6.72954L21.5799 6.83675L26.7465 12.0034C26.9473 12.2043 27.0762 12.4658 27.1134 12.7474L27.125 12.9166V19.375C27.125 19.6913 27.0088 19.9967 26.7986 20.2331C26.5883 20.4695 26.2987 20.6206 25.9845 20.6576L25.8333 20.6666H5.13825L4.99617 20.655L4.85408 20.6292L4.71588 20.5853L4.58025 20.5258L4.45108 20.4496L4.32967 20.3592L4.25217 20.2882L4.15917 20.1823L4.0765 20.0673L4.00675 19.9433L3.98608 19.8981L3.93442 19.765L3.89954 19.6281L3.88017 19.4886L3.875 19.3465L3.88663 19.2045L3.91117 19.0688C3.92408 19.0172 3.93958 18.9694 3.95637 18.9242L4.01579 18.7885L4.092 18.6594L9.25867 10.9094C9.41769 10.67 9.65203 10.4904 9.92458 10.3992C10.1971 10.3079 10.4923 10.3102 10.7635 10.4056L10.9107 10.4702L15.1435 12.586L19.6579 6.94267H19.6592Z" fill="#232121"/>
</g>
<defs>
<clipPath id="clip0_596_4131">
<rect width="31" height="31" fill="white"/>
</clipPath>
</defs>
</svg>
