<svg width="28" height="28" viewBox="0 0 28 28" fill="--color-iconbg" xmlns="http://www.w3.org/2000/svg">
<g clip-path="url(#clip0_596_4067)">
<path d="M10.5 3.5C11.1188 3.5 11.7123 3.74583 12.1499 4.18342C12.5875 4.621 12.8333 5.21449 12.8333 5.83333V12.8333C12.8333 13.4522 12.5875 14.0457 12.1499 14.4832C11.7123 14.9208 11.1188 15.1667 10.5 15.1667H5.83333C5.21449 15.1667 4.621 14.9208 4.18342 14.4832C3.74583 14.0457 3.5 13.4522 3.5 12.8333V5.83333C3.5 5.21449 3.74583 4.621 4.18342 4.18342C4.621 3.74583 5.21449 3.5 5.83333 3.5H10.5ZM10.5 17.5C11.1188 17.5 11.7123 17.7458 12.1499 18.1834C12.5875 18.621 12.8333 19.2145 12.8333 19.8333V22.1667C12.8333 22.7855 12.5875 23.379 12.1499 23.8166C11.7123 24.2542 11.1188 24.5 10.5 24.5H5.83333C5.21449 24.5 4.621 24.2542 4.18342 23.8166C3.74583 23.379 3.5 22.7855 3.5 22.1667V19.8333C3.5 19.2145 3.74583 18.621 4.18342 18.1834C4.621 17.7458 5.21449 17.5 5.83333 17.5H10.5ZM22.1667 12.8333C22.7855 12.8333 23.379 13.0792 23.8166 13.5168C24.2542 13.9543 24.5 14.5478 24.5 15.1667V22.1667C24.5 22.7855 24.2542 23.379 23.8166 23.8166C23.379 24.2542 22.7855 24.5 22.1667 24.5H17.5C16.8812 24.5 16.2877 24.2542 15.8501 23.8166C15.4125 23.379 15.1667 22.7855 15.1667 22.1667V15.1667C15.1667 14.5478 15.4125 13.9543 15.8501 13.5168C16.2877 13.0792 16.8812 12.8333 17.5 12.8333H22.1667ZM22.1667 3.5C22.7855 3.5 23.379 3.74583 23.8166 4.18342C24.2542 4.621 24.5 5.21449 24.5 5.83333V8.16667C24.5 8.7855 24.2542 9.379 23.8166 9.81658C23.379 10.2542 22.7855 10.5 22.1667 10.5H17.5C16.8812 10.5 16.2877 10.2542 15.8501 9.81658C15.4125 9.379 15.1667 8.7855 15.1667 8.16667V5.83333C15.1667 5.21449 15.4125 4.621 15.8501 4.18342C16.2877 3.74583 16.8812 3.5 17.5 3.5H22.1667Z" fill="white"/>
<rect x="15" y="3" width="10" height="8" rx="3" fill="--color-iconbg"/>
</g>
<defs>
<clipPath id="clip0_596_4067">
<rect width="28" height="28" fill="white"/>
</clipPath>
</defs>
</svg>
