<svg width="25" height="25" viewBox="0 0 25 25" fill="none" xmlns="http://www.w3.org/2000/svg">
<g clip-path="url(#clip0_596_4135)">
<path d="M12.4998 2.08325C13.5299 2.08325 14.5369 2.38872 15.3934 2.96101C16.2499 3.53331 16.9175 4.34674 17.3117 5.29844C17.7059 6.25014 17.8091 7.29736 17.6081 8.30768C17.4071 9.318 16.9111 10.246 16.1827 10.9744C15.4543 11.7028 14.5262 12.1989 13.5159 12.3998C12.5056 12.6008 11.4584 12.4977 10.5067 12.1035C9.555 11.7093 8.74157 11.0417 8.16927 10.1852C7.59697 9.32867 7.2915 8.3217 7.2915 7.29158L7.29671 7.06554C7.35496 5.72466 7.92859 4.45802 8.89799 3.52977C9.86738 2.60152 11.1577 2.08333 12.4998 2.08325Z" fill="#232121"/>
<path d="M14.5835 14.5833C15.9648 14.5833 17.2896 15.132 18.2663 16.1087C19.2431 17.0855 19.7918 18.4102 19.7918 19.7916V20.8333C19.7918 21.3858 19.5723 21.9157 19.1816 22.3064C18.7909 22.6971 18.261 22.9166 17.7085 22.9166H7.29183C6.7393 22.9166 6.20939 22.6971 5.81869 22.3064C5.42799 21.9157 5.2085 21.3858 5.2085 20.8333V19.7916C5.2085 18.4102 5.75723 17.0855 6.73398 16.1087C7.71073 15.132 9.03549 14.5833 10.4168 14.5833H14.5835Z" fill="#232121"/>
</g>
<defs>
<clipPath id="clip0_596_4135">
<rect width="25" height="25" fill="white"/>
</clipPath>
</defs>
</svg>
