<svg width="91" height="91" viewBox="0 0 91 91" fill="none" xmlns="http://www.w3.org/2000/svg">
<g clip-path="url(#clip0_368_14284)">
<path d="M22.5599 68.5649L22.5594 68.5646C24.4597 70.4649 24.4597 73.557 22.5595 75.4571C22.2787 75.7379 21.9648 75.9839 21.6263 76.1883C21.4211 76.3165 21.1793 76.4217 20.9517 76.5331L6.96726 84.0301C7.10571 83.7607 14.5048 70.368 14.6473 70.0586C14.8917 69.4995 15.2346 68.9966 15.6665 68.5647C16.6166 67.6146 17.8647 67.1393 19.1129 67.1393C20.3611 67.1393 21.6092 67.6146 22.5594 68.5647L22.559 68.5644L17.3949 63.4001C15.7473 63.7263 14.1758 64.5256 12.9016 65.7996C12.1455 66.5556 11.5405 67.4324 11.1024 68.4064L0.357136 87.931C-0.0605396 88.6898 0.070806 89.6327 0.679902 90.2485C1.05652 90.6294 1.5604 90.829 2.0705 90.8288C2.38526 90.8288 2.70252 90.7529 2.99365 90.5967L22.7378 80.0123C23.7079 79.574 24.5726 78.9722 25.3244 78.2223C26.5985 76.9481 27.3978 75.3766 27.724 73.729L22.5599 68.5649Z" fill="#5AD6F2"/>
<path d="M57.4564 44.2263C51.8366 44.3427 46.78 39.4116 46.8927 33.6676C46.8545 24.3312 58.3358 19.5777 64.926 26.1983C69.0237 30.1302 69.0242 37.2056 64.926 41.1374C62.8666 43.1966 60.1615 44.2263 57.4564 44.2263ZM57.4564 27.0173C53.9171 26.9439 50.7318 30.0502 50.8029 33.6676C50.8029 35.4448 51.495 37.1156 52.7517 38.3722C56.9027 42.5419 64.1342 39.5481 64.1098 33.6674C64.1804 30.0503 60.9959 26.9437 57.4564 27.0173Z" fill="white"/>
<path d="M88.2824 19.0103C90.9972 9.26815 91.0012 2.28479 91.0002 1.99224C90.998 1.46046 90.7793 0.95214 90.3943 0.585119C90.0093 0.218097 89.4912 0.0243666 88.96 0.0469388C78.8872 0.486654 69.2419 2.81711 60.2921 6.97378C49.316 12.1695 40.01 19.313 32.5361 29.2325L16.4738 28.4516C15.9223 28.4235 15.3863 28.6321 14.9965 29.0219L0.57266 43.4454C0.06665 43.9514 -0.122459 44.6933 0.0796247 45.3799C0.281709 46.0663 0.842638 46.5876 1.54202 46.7388L19.2238 50.5622C16.5691 55.5065 14.9098 59.016 14.8877 59.0627C14.536 59.8089 14.6905 60.6956 15.2738 61.2789L22.5591 68.5643L22.5595 68.5646L22.56 68.565L29.9971 76.0021C30.6101 76.6154 31.5525 76.7482 32.3068 76.3408C32.6866 76.1363 35.935 74.3811 40.414 71.8118L44.221 89.4176C44.5178 90.9067 46.4535 91.481 47.5144 90.3868L61.9379 75.9633C62.3279 75.5734 62.535 75.0368 62.5083 74.486L61.7277 58.4291C75.8387 48.4979 84.0641 33.6268 88.2824 19.0103ZM84.4789 18.0925C83.8106 20.4741 82.9275 23.1632 81.7639 26.0383L64.9369 9.21128C71.9192 6.35278 79.3168 4.63035 86.9951 4.07671C86.8033 6.76885 86.225 11.8693 84.4789 18.0925ZM17.1487 32.3992L29.8039 33.0145C27.0743 36.9442 23.9204 42.0825 21.1845 46.9857L5.87305 43.6749L17.1487 32.3992ZM22.6581 52.4436L29.2867 59.0723L23.9419 64.4174L19.0222 59.4977C19.7155 58.0866 20.9819 55.5628 22.6581 52.4436ZM31.727 72.2023L26.7069 67.1822L32.0517 61.8374L38.5676 68.3533C35.5753 70.0727 33.1258 71.4332 31.727 72.2023ZM58.5603 73.8108L47.2846 85.0864L43.9683 69.7494C48.3587 67.1722 53.3852 64.107 57.94 61.0512L58.5603 73.8108ZM66.1675 49.7914C61.4415 54.5175 50.5791 61.32 42.0655 66.3212L34.8166 59.0723L44.2386 49.6503C45.0022 48.8867 45.002 47.6488 44.2386 46.8853C43.4751 46.1219 42.2372 46.1219 41.4736 46.8853L32.0516 56.3073L24.6171 48.8727C29.0139 41.025 35.2019 31.087 41.3325 24.9564C47.1426 19.1463 53.7945 14.4281 61.1111 10.9156L80.0804 29.8846C77.0564 36.3033 72.6313 43.3276 66.1675 49.7914Z" fill="white"/>
</g>
<defs>
<clipPath id="clip0_368_14284">
<rect width="91" height="91" fill="white"/>
</clipPath>
</defs>
</svg>
