<svg width="20" height="19" viewBox="0 0 20 19" fill="none" xmlns="http://www.w3.org/2000/svg">
<g clip-path="url(#clip0_693_3884)">
<path d="M15.8052 4.96359C16.3593 5.27867 16.6998 5.86846 16.6958 6.50575V12.2723C16.6958 12.9127 16.3451 13.5033 15.779 13.8144L10.4353 17.1948C10.1704 17.3403 9.87303 17.4165 9.5708 17.4165C9.26857 17.4165 8.97123 17.3403 8.7063 17.1948L3.36255 13.8144C3.0856 13.6631 2.8544 13.4401 2.69313 13.1688C2.53185 12.8975 2.44644 12.5879 2.4458 12.2723V6.50496C2.4458 5.8645 2.79651 5.27471 3.36255 4.96359L8.7063 1.81275C8.97906 1.66237 9.28546 1.5835 9.59693 1.5835C9.90839 1.5835 10.2148 1.66237 10.4876 1.81275L15.8313 4.96359H15.8052Z" stroke="#1D70B7" stroke-width="2" stroke-linecap="round" stroke-linejoin="round"/>
<path d="M9.5708 12.6665V12.6748" stroke="#1D70B7" stroke-width="2" stroke-linecap="round" stroke-linejoin="round"/>
<path d="M9.5708 10.2915C9.92685 10.2925 10.2729 10.1736 10.553 9.95378C10.8331 9.73398 11.0309 9.42618 11.1146 9.08009C11.1982 8.734 11.1628 8.36982 11.014 8.04636C10.8651 7.7229 10.6116 7.45904 10.2944 7.2974C9.97944 7.13606 9.61918 7.08604 9.27219 7.15547C8.92521 7.22489 8.61192 7.40968 8.3833 7.67977" stroke="#1D70B7" stroke-width="2" stroke-linecap="round" stroke-linejoin="round"/>
</g>
<defs>
<clipPath id="clip0_693_3884">
<rect width="19" height="19" fill="white" transform="translate(0.0708008)"/>
</clipPath>
</defs>
</svg>
